<?xml version="1.0" encoding="utf-8"?>
<!-- Generator: Adobe Illustrator 26.1.0, SVG Export Plug-In . SVG Version: 6.00 Build 0)  -->
<svg version="1.1" id="Layer_1" xmlns="http://www.w3.org/2000/svg" xmlns:xlink="http://www.w3.org/1999/xlink" x="0px" y="0px"
	 viewBox="0 0 60 60" style="enable-background:new 0 0 60 60;" xml:space="preserve">
<style type="text/css">
	.st0{fill:#E4F9F4;}
	.st1{fill:#E52F84;}
</style>
<g id="Group_9" transform="translate(-1555 -991)">
	<g transform="matrix(1, 0, 0, 1, 1555, 991)">
		<path id="Path_44-2" class="st0" d="M30,60C13.4,60,0,46.6,0,30S13.4,0,30,0s30,13.4,30,30S46.6,60,30,60z"/>
	</g>
	<path id="Icon_awesome-arrow-alt-circle-right" class="st1" d="M1585,1047.9c-14.8,0-26.9-12-26.9-26.9s12-26.9,26.9-26.9
		s26.9,12,26.9,26.9l0,0C1611.9,1035.8,1599.8,1047.9,1585,1047.9C1585,1047.9,1585,1047.9,1585,1047.9z M1597.6,1016.2H1585v-7.7
		c0-0.7-0.6-1.3-1.3-1.3c-0.3,0-0.7,0.1-0.9,0.4l-12.4,12.5c-0.5,0.5-0.5,1.3,0,1.8c0,0,0,0,0,0l12.4,12.5c0.5,0.5,1.3,0.5,1.8,0
		c0.2-0.2,0.4-0.6,0.4-0.9v-7.7h12.6c0.7,0,1.3-0.6,1.3-1.3v-6.9C1598.9,1016.8,1598.3,1016.2,1597.6,1016.2z"/>
</g>
</svg>
