<?xml version="1.0" encoding="utf-8"?>
<!-- Generator: Adobe Illustrator 26.1.0, SVG Export Plug-In . SVG Version: 6.00 Build 0)  -->
<svg version="1.1" id="Layer_1" xmlns="http://www.w3.org/2000/svg" xmlns:xlink="http://www.w3.org/1999/xlink" x="0px" y="0px"
	 viewBox="0 0 60 60" style="enable-background:new 0 0 60 60;" xml:space="preserve">
<style type="text/css">
	.st0{fill:#E4F9F4;}
	.st1{fill:#E52F84;}
</style>
<g id="Group_9" transform="translate(-1555 -991)">
	<g transform="matrix(1, 0, 0, 1, 1555, 991)">
		<path id="Path_44-2" class="st0" d="M30,0c16.6,0,30,13.4,30,30S46.6,60,30,60S0,46.6,0,30S13.4,0,30,0z"/>
	</g>
	<path id="Icon_awesome-arrow-alt-circle-right" class="st1" d="M1585,994.1c14.8,0,26.9,12,26.9,26.9s-12,26.9-26.9,26.9
		s-26.9-12-26.9-26.9l0,0C1558.1,1006.2,1570.2,994.1,1585,994.1C1585,994.1,1585,994.1,1585,994.1z M1572.4,1025.8h12.6v7.7
		c0,0.7,0.6,1.3,1.3,1.3c0.3,0,0.7-0.1,0.9-0.4l12.4-12.5c0.5-0.5,0.5-1.3,0-1.8c0,0,0,0,0,0l-12.4-12.5c-0.5-0.5-1.3-0.5-1.8,0
		c-0.2,0.2-0.4,0.6-0.4,0.9v7.7h-12.6c-0.7,0-1.3,0.6-1.3,1.3v6.9C1571.1,1025.2,1571.7,1025.8,1572.4,1025.8z"/>
</g>
</svg>
