<?xml version="1.0" encoding="utf-8"?>
<!-- Generator: Adobe Illustrator 26.1.0, SVG Export Plug-In . SVG Version: 6.00 Build 0)  -->
<svg version="1.1" id="Layer_1" xmlns="http://www.w3.org/2000/svg" xmlns:xlink="http://www.w3.org/1999/xlink" x="0px" y="0px"
	 viewBox="0 0 2500 1616" style="enable-background:new 0 0 2500 1616;" xml:space="preserve">
<style type="text/css">
	.st0{fill:#E4F9F4;}
</style>
<g>
	<path class="st0" d="M838.5,658.2V344.9c0-100.6-66.1-165.7-166.7-165.7c-55.6,0-100.6,19.2-128.4,57.5c-1.9,3.8-4.8,1-4.8-2.9
		v-35.4c0-7.7-4.8-12.5-12.5-12.5H483c-7.7,0-12.5,4.8-12.5,12.5v459.9c0,7.7,4.8,12.5,12.5,12.5h43.1c7.7,0,12.5-4.8,12.5-12.5
		v-319c6.7-60.4,52.7-100.6,117.8-100.6c68,0,114,48.9,114,119.8v299.9c0,7.7,4.8,12.5,12.5,12.5H826
		C833.7,670.6,838.5,665.8,838.5,658.2z"/>
	<path class="st0" d="M1252.3,669.7h32.6c8.6-1,12.5-5.7,12.5-13.4v-33.5c0-7.7-4.8-12.5-12.5-12.5h-21.1
		c-57.5,0-85.3-21.1-85.3-83.4V247.2c0-2.9,1.9-4.8,4.8-4.8h104.4c7.7,0,12.5-4.8,12.5-12.5v-31.6c0-7.7-4.8-12.5-12.5-12.5h-104.4
		c-2.9,0-4.8-1.9-4.8-4.8V73.8c0-7.7-4.8-12.5-12.5-12.5h-41.2c-7.7,0-12.5,4.8-12.5,12.5v107.3c0,2.9-1.9,4.8-4.8,4.8h-54.6
		c-7.7,0-12.5,4.8-12.5,12.5V230c0,7.7,4.8,12.5,12.5,12.5h54.6c2.9,0,4.8,1.9,4.8,4.8V548C1112.5,647.6,1169,669.7,1252.3,669.7z"
		/>
	<path class="st0" d="M1369.1,670.6h43.1c7.7,0,12.5-4.8,12.5-12.5v-319c6.7-60.4,52.7-100.6,117.8-100.6c68,0,114,48.9,114,119.8
		v299.9c0,7.7,4.8,12.5,12.5,12.5h43.1c7.7,0,12.5-4.8,12.5-12.5V344.9c0-100.6-66.1-165.7-166.7-165.7
		c-55.6,0-100.6,19.2-128.4,57.5c-1.9,3.8-4.8,1-4.8-2.9V12.5c0-7.7-4.8-12.5-12.5-12.5h-43.1c-7.7,0-12.5,4.8-12.5,12.5v645.7
		C1356.7,665.8,1361.5,670.6,1369.1,670.6z"/>
	<path class="st0" d="M2167.1,573.9c3.8-6.7,1-12.5-5.7-16.3l-27.8-15.3c-6.7-3.8-13.4-1-16.3,5.7c-22,43.1-63.2,70.9-122.6,71.9
		c-69.9,0-116.9-38.3-130.3-93.9c-3.8-14.4-5.7-38.3-5.7-69.9c0-2.9,1.9-4.8,4.8-4.8h306.6c7.7,0,12.5-4.8,12.5-12.5
		c0-45-1-69.9-5.7-95.8c-17.2-100.6-77.6-164.8-191.6-164.8c-94.8,0-163.8,54.6-184.9,137c-7.7,29.7-8.6,62.3-8.6,111.1
		c0,53.6,4.8,96.8,18.2,132.2c25.9,73.8,88.1,119.8,179.2,119.8C2075.1,678.3,2137.4,636.1,2167.1,573.9z M1866.2,327.6
		c12.5-52.7,53.7-90.1,118.8-90.1c66.1,0,110.2,38.3,123.6,93.9c2.9,13.4,4.8,35.4,5.7,61.3c0,2.9-1.9,4.8-4.8,4.8h-246.2
		c-2.9,0-4.8-1.9-4.8-4.8C1859.5,365,1861.5,343,1866.2,327.6z"/>
	<path class="st0" d="M432.6,861.6c-67.3,0-123.1,25.8-166.1,70.1c-5.7,5.7-10,4.3-10-2.9l33-269.2c46.9-21.7,81.5-61.5,97.5-114.5
		c9.6-31.6,13.4-71.9,13.4-117.8c0-45-3.8-85.3-13.4-117.8c-23.9-80.5-93.9-131.2-185.9-131.2c-94.8,0-163.8,50.8-188.7,132.2
		C3.8,341.1,0,380.3,0,427.3c0,46,3.8,86.2,13.4,117.8c17.9,59.2,58.6,102,114.9,121.4L16,1581.7c-2.9,14.3,5.7,22.9,18.6,22.9H152
		c12.9,0,22.9-8.6,24.3-22.9l4.3-37.2c1.4-7.2,7.2-10,10-2.9c32.9,47.2,83,74.4,150.3,74.4c133.1,0,234.8-78.7,290.6-200.4
		c22.9-53,38.7-113.1,47.2-179c7.2-64.4,8.6-123.1-2.9-174.7C651.6,938.9,570,861.6,432.6,861.6z M76.6,525
		c-5.7-21.1-7.7-55.6-7.7-96.8c0-40.2,1.9-75.7,7.7-96.8C92,275,137,237.6,199.3,237.6c64.2,0,110.2,37.4,124.5,93.9
		c5.7,21.1,7.7,54.6,7.7,96.8c0,38.3-1.9,73.8-7.7,96.8c-15.3,57.5-61.3,93.9-122.6,93.9C137,618.9,91,582.5,76.6,525z
		 M511.3,1239.5c-8.6,67.3-25.8,123.1-53,163.2c-28.6,44.4-73,68.7-124.6,68.7c-48.7,0-81.6-24.3-100.2-67.3
		c-18.6-38.7-20-97.4-11.5-166.1c8.6-73,27.2-130.3,54.4-170.4c28.6-40.1,67.3-63,113.1-63c48.7,0,83,21.5,103.1,60.1
		C514.2,1106.4,521.3,1165.1,511.3,1239.5z"/>
	<path class="st0" d="M993.8,573.8c-61.6,0-108.8,42.9-116,103.1c-8.6,61.6,30.1,104.5,90.2,104.5c61.6,0,108.8-42.9,116-104.5
		C1091.1,616.8,1055.3,573.8,993.8,573.8z"/>
	<path class="st0" d="M1015.2,873h-116c-14.3,0-22.9,8.6-25.8,22.9L789,1581.7c-1.4,14.3,5.7,22.9,20,22.9h117.4
		c12.9,0,22.9-8.6,24.3-22.9l84.5-685.7C1036.7,881.6,1029.6,873,1015.2,873z"/>
	<path class="st0" d="M1788.3,873h-116c-14.3,0-24.3,8.6-25.8,22.9l-2.9,30.1c-1.4,7.2-5.7,10-10,2.9c-34.4-42.9-83-67.3-148.9-67.3
		c-137.4,0-237.7,77.3-293.5,200.4c-22.9,51.5-37.2,110.2-44.4,174.7c-8.6,65.9-7.2,126,2.9,179c25.8,121.7,108.8,200.4,241.9,200.4
		c65.9,0,123.1-27.2,166.1-73c4.3-5.7,10-2.9,8.6,4.3l-4.3,34.4c-1.4,14.3,5.7,22.9,20,22.9h116c14.3,0,24.3-8.6,25.8-22.9
		l84.5-685.7C1809.8,881.6,1802.6,873,1788.3,873z M1603.6,1238.1c-8.6,68.7-25.8,127.4-53,166.1c-30.1,42.9-67.3,67.3-116,67.3
		c-53,0-90.2-24.3-108.8-68.7c-17.2-40.1-21.5-95.9-12.9-163.2c8.6-74.4,30.1-133.1,61.6-174.7c30.1-38.7,70.1-60.1,118.8-60.1
		c45.8,0,77.3,22.9,95.9,63C1607.9,1107.8,1612.2,1165.1,1603.6,1238.1z"/>
	<path class="st0" d="M2242.1,864.4c-164.6,0-286.3,83-303.5,219c-17.2,140.3,100.2,186.1,207.6,220.5
		c87.3,31.5,168.9,41.5,160.3,101.6c-5.7,47.2-60.1,83-134.6,83c-80.2,0-130.3-41.5-123.1-88.8v-10c1.4-5.7-7.2-10-20-10h-111.7
		c-14.3,0-22.9,8.6-24.3,22.9l-1.4,7.2c-14.3,116,88.8,203.3,266.3,203.3c171.8,0,294.9-80.2,312.1-217.6
		c17.2-143.2-105.9-187.5-217.6-221.9c-90.2-27.2-166.1-41.5-158.9-100.2c7.2-51.5,61.6-78.7,131.7-78.7
		c84.5,0,127.4,40.1,121.7,87.3l-1.4,8.6c0,5.7,8.6,8.6,21.5,8.6h107.4c14.3,0,22.9-7.2,24.3-17.2
		C2514.1,954.6,2412.5,864.4,2242.1,864.4z"/>
</g>
</svg>
